/* XPM */
static char * sqlitebrowser_xpm[] = {
"16 16 31 1",
" 	c None",
".	c #696969",
"+	c #555555",
"@	c #404040",
"#	c #292929",
"$	c #151515",
"%	c #060606",
"&	c #646464",
"*	c #313131",
"=	c #4F4F4F",
"-	c #808080",
";	c #AAAAAA",
">	c #CECECE",
",	c #E8E8E8",
"'	c #F9F9F9",
")	c #252525",
"!	c #C2C2C2",
"~	c #FFFFFF",
"{	c #585858",
"]	c #515151",
"^	c #363636",
"/	c #545454",
"(	c #595959",
"_	c #484848",
":	c #2E2E2E",
"<	c #161616",
"[	c #BBBBBB",
"}	c #E4E4E4",
"|	c #D9D9D9",
"1	c #D2D2D2",
"2	c #CCCCCC",
"                ",
"                ",
"  .+@#$%%$#@+.  ",
"&*=-;>,'',>;-=*&",
")!~~~~~~~~~~~~!)",
"{*=-;>,'',>;-=*{",
"]^/(_:<%%<:_(/^]",
")[}|1>2222>1|}[)",
"{*=-;>,'',>;-=*{",
"]^/(_:<%%<:_(/^]",
")[}|1>2222>1|}[)",
"&*=-;>,'',>;-=*&",
"  .+@#$%%$#@+.  ",
"                ",
"                ",
"                "};
